<?xml version="1.0" standalone="no"?>
<!DOCTYPE svg PUBLIC "-//W3C//DTD SVG 20010904//EN"
 "http://www.w3.org/TR/2001/REC-SVG-20010904/DTD/svg10.dtd">
<svg version="1.0" xmlns="http://www.w3.org/2000/svg"
 width="700.000000pt" height="700.000000pt" viewBox="0 0 700.000000 700.000000"
 preserveAspectRatio="xMidYMid meet">
<metadata>
Created by potrace 1.14, written by Peter Selinger 2001-2017
</metadata>
<g transform="translate(0.000000,700.000000) scale(0.100000,-0.100000)"
fill="#000000" stroke="none">
<path d="M3445 6115 c-22 -7 -76 -29 -120 -49 -44 -21 -105 -49 -135 -63 -53
-25 -294 -137 -435 -203 -38 -18 -121 -57 -184 -86 -62 -30 -115 -54 -117 -54
-2 0 -74 -34 -159 -75 -86 -41 -158 -75 -160 -75 -2 0 -50 -22 -107 -49 -109
-52 -672 -314 -773 -361 -33 -15 -105 -49 -160 -75 -55 -26 -161 -75 -235
-110 -225 -105 -290 -135 -408 -191 -63 -30 -115 -54 -117 -54 -13 0 -227
-107 -254 -127 -49 -37 -85 -121 -78 -183 7 -64 32 -114 73 -148 28 -24 175
-88 394 -172 25 -10 119 -48 210 -85 91 -37 192 -77 225 -90 110 -42 1169
-466 1226 -491 31 -13 59 -24 63 -24 3 0 25 -9 49 -19 23 -11 197 -81 387
-156 190 -75 359 -143 375 -150 17 -7 50 -20 75 -30 25 -9 59 -22 75 -29 17
-8 50 -21 75 -31 25 -10 59 -23 75 -30 123 -50 152 -58 199 -58 43 1 155 42
706 262 360 144 664 266 675 271 11 5 281 113 600 240 319 127 594 236 610
244 l30 13 0 -1280 0 -1281 -72 -12 c-171 -29 -316 -164 -353 -329 -9 -41 -15
-539 -11 -927 l1 -48 655 0 655 0 -1 468 c-1 514 -3 532 -62 631 -64 107 -193
193 -309 207 -29 4 -56 8 -59 10 -3 2 -5 618 -5 1370 l1 1366 168 68 c92 37
180 78 193 91 88 82 93 229 11 317 -17 18 -293 162 -311 162 -2 0 -57 25 -122
56 -195 92 -233 109 -379 177 -77 36 -193 90 -259 121 -65 31 -119 56 -121 56
-1 0 -73 34 -160 75 -86 41 -158 75 -160 75 -2 0 -54 24 -117 54 -62 29 -143
68 -180 85 -144 66 -207 96 -317 147 -62 30 -115 54 -116 54 -2 0 -65 30 -141
66 -77 36 -157 74 -179 84 -53 24 -163 75 -437 204 -322 150 -354 165 -380
171 -54 12 -75 12 -113 0z"/>
<path d="M5225 3062 c-23 -3 -72 -20 -200 -69 -49 -18 -112 -42 -140 -52 -27
-11 -133 -51 -235 -89 -102 -38 -248 -93 -325 -122 -125 -46 -287 -107 -385
-145 -19 -7 -126 -47 -237 -89 l-203 -75 -87 33 c-49 18 -151 57 -228 85 -77
29 -212 80 -300 113 -88 33 -196 73 -240 90 -44 17 -89 34 -100 38 -11 5 -65
25 -120 45 -55 20 -116 43 -135 51 -19 7 -138 52 -265 99 -254 94 -292 101
-370 64 -77 -36 -97 -72 -164 -299 -33 -113 -85 -290 -117 -395 -31 -104 -57
-210 -59 -233 -6 -106 50 -180 176 -231 106 -42 225 -90 264 -107 17 -7 73
-29 125 -49 52 -20 120 -47 150 -60 30 -12 199 -80 375 -150 176 -70 334 -132
350 -139 17 -7 62 -26 100 -41 39 -15 84 -33 100 -40 17 -7 95 -38 175 -70 80
-31 160 -64 179 -72 80 -36 168 -61 206 -58 31 3 567 208 730 279 17 8 322
130 679 272 708 283 718 288 749 377 24 71 20 94 -62 372 -16 55 -50 170 -75
255 -26 85 -53 180 -62 210 -24 80 -60 137 -105 166 -41 25 -108 43 -144 36z"/>
</g>
</svg>
