<svg xmlns="http://www.w3.org/2000/svg" width="1920" height="100"><path d="M1,-93L187,-88L499,-94Z" fill="#e9f6e4" stroke="#e9f6e4" stroke-width="1.51"/><path d="M499,-94L526,-93L827,-91Z" fill="#d0edcb" stroke="#d0edcb" stroke-width="1.51"/><path d="M936,187L887,188L1177,190Z" fill="#3a8647" stroke="#3a8647" stroke-width="1.51"/><path d="M499,-94L827,-91L1193,-94Z" fill="#bfe5bb" stroke="#bfe5bb" stroke-width="1.51"/><path d="M827,-91L1026,-77L1193,-94Z" fill="#b0ddae" stroke="#b0ddae" stroke-width="1.51"/><path d="M1297,175L1245,182L1473,167Z" fill="#1d7d3b" stroke="#1d7d3b" stroke-width="1.51"/><path d="M1193,-94L1376,-73L1522,-92Z" fill="#96ca9c" stroke="#96ca9c" stroke-width="1.51"/><path d="M1541,159L1473,167L1646,163Z" fill="#107735" stroke="#107735" stroke-width="1.51"/><path d="M1473,167L1245,182L1720,175Z" fill="#137536" stroke="#137536" stroke-width="1.51"/><path d="M1245,182L1177,190L1720,175Z" fill="#197738" stroke="#197738" stroke-width="1.51"/><path d="M1646,163L1473,167L1720,175Z" fill="#0a7131" stroke="#0a7131" stroke-width="1.51"/><path d="M1522,-92L1681,-88L1832,-90Z" fill="#89b78c" stroke="#89b78c" stroke-width="1.51"/><path d="M1766,177L1720,175L1892,192Z" fill="#005f26" stroke="#005f26" stroke-width="1.51"/><path d="M1720,175L1177,190L1892,192Z" fill="#0b682d" stroke="#0b682d" stroke-width="1.51"/><path d="M1844,177L1766,177L1892,192Z" fill="#005b24" stroke="#005b24" stroke-width="1.51"/><path d="M1832,-90L1898,-79L1973,-81Z" fill="#7ea481" stroke="#7ea481" stroke-width="1.51"/><path d="M1975,19L1940,67L1990,92Z" fill="#378245" stroke="#378245" stroke-width="1.51"/><path d="M1935,10L1975,19L1997,-39Z" fill="#5c9260" stroke="#5c9260" stroke-width="1.51"/><path d="M1921,-14L1935,10L1997,-39Z" fill="#629666" stroke="#629666" stroke-width="1.51"/><path d="M1975,19L1990,92L1997,-39Z" fill="#4d8a53" stroke="#4d8a53" stroke-width="1.51"/><path d="M1939,157L1892,192L1999,178Z" fill="#005622" stroke="#005622" stroke-width="1.51"/><path d="M1990,92L1969,111L1999,178Z" fill="#106830" stroke="#106830" stroke-width="1.51"/><path d="M1969,111L1939,157L1999,178Z" fill="#066129" stroke="#066129" stroke-width="1.51"/><path d="M1997,-39L1990,92L1999,178Z" fill="#2a7a3e" stroke="#2a7a3e" stroke-width="1.51"/><path d="M1973,-81L1934,-66L1997,-39Z" fill="#769c79" stroke="#769c79" stroke-width="1.51"/><path d="M1934,-66L1921,-14L1997,-39Z" fill="#6e9a70" stroke="#6e9a70" stroke-width="1.51"/><path d="M1898,-79L1934,-66L1973,-81Z" fill="#7aa07d" stroke="#7aa07d" stroke-width="1.51"/><path d="M1940,67L1969,111L1990,92Z" fill="#21783b" stroke="#21783b" stroke-width="1.51"/><path d="M1681,-88L1790,-79L1832,-90Z" fill="#84b087" stroke="#84b087" stroke-width="1.51"/><path d="M1928,130L1939,157L1969,111Z" fill="#0e692f" stroke="#0e692f" stroke-width="1.51"/><path d="M1935,10L1940,67L1975,19Z" fill="#498b51" stroke="#498b51" stroke-width="1.51"/><path d="M1940,67L1928,130L1969,111Z" fill="#1b7538" stroke="#1b7538" stroke-width="1.51"/><path d="M1892,89L1891,123L1928,130Z" fill="#177336" stroke="#177336" stroke-width="1.51"/><path d="M1883,-25L1921,-14L1934,-66Z" fill="#6d9d70" stroke="#6d9d70" stroke-width="1.51"/><path d="M1935,10L1885,43L1940,67Z" fill="#458c4e" stroke="#458c4e" stroke-width="1.51"/><path d="M1885,43L1892,89L1940,67Z" fill="#348545" stroke="#348545" stroke-width="1.51"/><path d="M1892,89L1928,130L1940,67Z" fill="#1f7a3c" stroke="#1f7a3c" stroke-width="1.51"/><path d="M1898,-79L1883,-25L1934,-66Z" fill="#76a179" stroke="#76a179" stroke-width="1.51"/><path d="M1928,130L1891,123L1939,157Z" fill="#0c6a2f" stroke="#0c6a2f" stroke-width="1.51"/><path d="M1891,123L1892,192L1939,157Z" fill="#026228" stroke="#026228" stroke-width="1.51"/><path d="M1921,-14L1885,43L1935,10Z" fill="#56945b" stroke="#56945b" stroke-width="1.51"/><path d="M1883,-25L1885,43L1921,-14Z" fill="#5c9761" stroke="#5c9761" stroke-width="1.51"/><path d="M1138,185L936,187L1177,190Z" fill="#328344" stroke="#328344" stroke-width="1.51"/><path d="M1566,157L1541,159L1646,163Z" fill="#0f7734" stroke="#0f7734" stroke-width="1.51"/><path d="M1883,-25L1842,-15L1885,43Z" fill="#5e9962" stroke="#5e9962" stroke-width="1.51"/><path d="M1852,128L1844,177L1891,123Z" fill="#0a6c2e" stroke="#0a6c2e" stroke-width="1.51"/><path d="M1891,123L1844,177L1892,192Z" fill="#006227" stroke="#006227" stroke-width="1.51"/><path d="M1832,-90L1883,-25L1898,-79Z" fill="#7aa57d" stroke="#7aa57d" stroke-width="1.51"/><path d="M1832,-90L1842,-15L1883,-25Z" fill="#73a376" stroke="#73a376" stroke-width="1.51"/><path d="M1842,-15L1818,16L1885,43Z" fill="#57995c" stroke="#57995c" stroke-width="1.51"/><path d="M1885,43L1818,61L1892,89Z" fill="#368947" stroke="#368947" stroke-width="1.51"/><path d="M1818,61L1852,128L1892,89Z" fill="#21813f" stroke="#21813f" stroke-width="1.51"/><path d="M1852,128L1891,123L1892,89Z" fill="#187637" stroke="#187637" stroke-width="1.51"/><path d="M1818,16L1818,61L1885,43Z" fill="#479251" stroke="#479251" stroke-width="1.51"/><path d="M827,-91L918,-79L1026,-77Z" fill="#b6e0b2" stroke="#b6e0b2" stroke-width="1.51"/><path d="M1832,-90L1795,-37L1842,-15Z" fill="#76a779" stroke="#76a779" stroke-width="1.51"/><path d="M1782,114L1844,177L1852,128Z" fill="#0c6f31" stroke="#0c6f31" stroke-width="1.51"/><path d="M1818,61L1782,114L1852,128Z" fill="#1f803d" stroke="#1f803d" stroke-width="1.51"/><path d="M1790,-79L1795,-37L1832,-90Z" fill="#7eab81" stroke="#7eab81" stroke-width="1.51"/><path d="M1782,114L1766,177L1844,177Z" fill="#036b2c" stroke="#036b2c" stroke-width="1.51"/><path d="M1795,-37L1818,16L1842,-15Z" fill="#66a16a" stroke="#66a16a" stroke-width="1.51"/><path d="M1794,59L1782,114L1818,61Z" fill="#2d8a45" stroke="#2d8a45" stroke-width="1.51"/><path d="M1796,26L1818,61L1818,16Z" fill="#4c9755" stroke="#4c9755" stroke-width="1.51"/><path d="M1522,-92L1597,-75L1681,-88Z" fill="#8bbb90" stroke="#8bbb90" stroke-width="1.51"/><path d="M1796,26L1794,59L1818,61Z" fill="#43934e" stroke="#43934e" stroke-width="1.51"/><path d="M1795,-37L1796,26L1818,16Z" fill="#5f9f64" stroke="#5f9f64" stroke-width="1.51"/><path d="M1680,164L1646,163L1720,175Z" fill="#056e2e" stroke="#056e2e" stroke-width="1.51"/><path d="M1681,-88L1748,-61L1790,-79Z" fill="#82b286" stroke="#82b286" stroke-width="1.51"/><path d="M1751,80L1782,114L1794,59Z" fill="#288a44" stroke="#288a44" stroke-width="1.51"/><path d="M1748,-61L1722,-35L1795,-37Z" fill="#77ac7a" stroke="#77ac7a" stroke-width="1.51"/><path d="M1722,-35L1721,21L1795,-37Z" fill="#6ba86f" stroke="#6ba86f" stroke-width="1.51"/><path d="M1790,-79L1748,-61L1795,-37Z" fill="#7cad7f" stroke="#7cad7f" stroke-width="1.51"/><path d="M1751,80L1794,59L1796,26Z" fill="#3f934d" stroke="#3f934d" stroke-width="1.51"/><path d="M1721,21L1751,80L1796,26Z" fill="#489953" stroke="#489953" stroke-width="1.51"/><path d="M1795,-37L1721,21L1796,26Z" fill="#5fa265" stroke="#5fa265" stroke-width="1.51"/><path d="M1748,106L1766,177L1782,114Z" fill="#117735" stroke="#117735" stroke-width="1.51"/><path d="M1751,80L1748,106L1782,114Z" fill="#208540" stroke="#208540" stroke-width="1.51"/><path d="M1748,106L1720,175L1766,177Z" fill="#05712f" stroke="#05712f" stroke-width="1.51"/><path d="M1703,125L1720,175L1748,106Z" fill="#117936" stroke="#117936" stroke-width="1.51"/><path d="M1384,160L1297,175L1473,167Z" fill="#1b7f3c" stroke="#1b7f3c" stroke-width="1.51"/><path d="M1721,21L1677,59L1751,80Z" fill="#429851" stroke="#429851" stroke-width="1.51"/><path d="M1703,125L1748,106L1751,80Z" fill="#208640" stroke="#208640" stroke-width="1.51"/><path d="M1677,59L1703,125L1751,80Z" fill="#288d46" stroke="#288d46" stroke-width="1.51"/><path d="M827,-91L895,-81L918,-79Z" fill="#bae2b6" stroke="#bae2b6" stroke-width="1.51"/><path d="M1681,-88L1722,-35L1748,-61Z" fill="#80b183" stroke="#80b183" stroke-width="1.51"/><path d="M1703,125L1680,164L1720,175Z" fill="#087230" stroke="#087230" stroke-width="1.51"/><path d="M1683,21L1677,59L1721,21Z" fill="#509f5a" stroke="#509f5a" stroke-width="1.51"/><path d="M1683,21L1721,21L1722,-35Z" fill="#62a668" stroke="#62a668" stroke-width="1.51"/><path d="M1670,-25L1683,21L1722,-35Z" fill="#6caa70" stroke="#6caa70" stroke-width="1.51"/><path d="M1681,-88L1670,-25L1722,-35Z" fill="#7cb180" stroke="#7cb180" stroke-width="1.51"/><path d="M1193,-94L1327,-70L1376,-73Z" fill="#98cd9e" stroke="#98cd9e" stroke-width="1.51"/><path d="M1646,163L1680,164L1703,125Z" fill="#0c7533" stroke="#0c7533" stroke-width="1.51"/><path d="M1624,127L1646,163L1703,125Z" fill="#147b38" stroke="#147b38" stroke-width="1.51"/><path d="M1637,80L1624,127L1703,125Z" fill="#208741" stroke="#208741" stroke-width="1.51"/><path d="M1677,59L1637,80L1703,125Z" fill="#299048" stroke="#299048" stroke-width="1.51"/><path d="M1597,-75L1620,-61L1681,-88Z" fill="#87b88b" stroke="#87b88b" stroke-width="1.51"/><path d="M1620,-61L1670,-25L1681,-88Z" fill="#81b585" stroke="#81b585" stroke-width="1.51"/><path d="M1670,-25L1634,-7L1683,21Z" fill="#68ab6d" stroke="#68ab6d" stroke-width="1.51"/><path d="M1634,-7L1632,20L1683,21Z" fill="#60a867" stroke="#60a867" stroke-width="1.51"/><path d="M1632,20L1677,59L1683,21Z" fill="#52a15c" stroke="#52a15c" stroke-width="1.51"/><path d="M1632,20L1637,80L1677,59Z" fill="#459c54" stroke="#459c54" stroke-width="1.51"/><path d="M1620,-61L1634,-7L1670,-25Z" fill="#77b17b" stroke="#77b17b" stroke-width="1.51"/><path d="M1620,-61L1591,-39L1634,-7Z" fill="#7ab37e" stroke="#7ab37e" stroke-width="1.51"/><path d="M1632,20L1587,83L1637,80Z" fill="#419c53" stroke="#419c53" stroke-width="1.51"/><path d="M1624,127L1581,139L1646,163Z" fill="#157c39" stroke="#157c39" stroke-width="1.51"/><path d="M1581,139L1566,157L1646,163Z" fill="#117936" stroke="#117936" stroke-width="1.51"/><path d="M1376,-73L1428,-68L1522,-92Z" fill="#90c496" stroke="#90c496" stroke-width="1.51"/><path d="M1583,8L1587,83L1632,20Z" fill="#52a45e" stroke="#52a45e" stroke-width="1.51"/><path d="M1587,83L1624,127L1637,80Z" fill="#288f47" stroke="#288f47" stroke-width="1.51"/><path d="M1583,8L1632,20L1634,-7Z" fill="#64ab6a" stroke="#64ab6a" stroke-width="1.51"/><path d="M1591,-39L1583,8L1634,-7Z" fill="#70b075" stroke="#70b075" stroke-width="1.51"/><path d="M1587,83L1581,139L1624,127Z" fill="#218842" stroke="#218842" stroke-width="1.51"/><path d="M1597,-75L1591,-39L1620,-61Z" fill="#84b888" stroke="#84b888" stroke-width="1.51"/><path d="M1583,8L1528,42L1587,83Z" fill="#4fa45c" stroke="#4fa45c" stroke-width="1.51"/><path d="M1531,-27L1583,8L1591,-39Z" fill="#74b379" stroke="#74b379" stroke-width="1.51"/><path d="M1522,-92L1531,-27L1591,-39Z" fill="#84bb89" stroke="#84bb89" stroke-width="1.51"/><path d="M1522,-92L1591,-39L1597,-75Z" fill="#88bb8d" stroke="#88bb8d" stroke-width="1.51"/><path d="M1518,125L1581,139L1587,83Z" fill="#238a44" stroke="#238a44" stroke-width="1.51"/><path d="M1517,83L1518,125L1587,83Z" fill="#2c944b" stroke="#2c944b" stroke-width="1.51"/><path d="M1528,42L1517,83L1587,83Z" fill="#3e9d54" stroke="#3e9d54" stroke-width="1.51"/><path d="M1531,-27L1528,42L1583,8Z" fill="#67af6e" stroke="#67af6e" stroke-width="1.51"/><path d="M1541,159L1566,157L1581,139Z" fill="#147c38" stroke="#147c38" stroke-width="1.51"/><path d="M1518,125L1541,159L1581,139Z" fill="#19813c" stroke="#19813c" stroke-width="1.51"/><path d="M1500,21L1528,42L1531,-27Z" fill="#66b06d" stroke="#66b06d" stroke-width="1.51"/><path d="M1441,157L1384,160L1473,167Z" fill="#187f3b" stroke="#187f3b" stroke-width="1.51"/><path d="M1485,-63L1491,-42L1522,-92Z" fill="#8bbf90" stroke="#8bbf90" stroke-width="1.51"/><path d="M1522,-92L1491,-42L1531,-27Z" fill="#86bd8a" stroke="#86bd8a" stroke-width="1.51"/><path d="M1518,125L1473,167L1541,159Z" fill="#187f3b" stroke="#187f3b" stroke-width="1.51"/><path d="M1428,-68L1485,-63L1522,-92Z" fill="#8ec194" stroke="#8ec194" stroke-width="1.51"/><path d="M1484,66L1517,83L1528,42Z" fill="#44a158" stroke="#44a158" stroke-width="1.51"/><path d="M1491,-42L1500,21L1531,-27Z" fill="#75b67b" stroke="#75b67b" stroke-width="1.51"/><path d="M1500,21L1484,66L1528,42Z" fill="#53a85f" stroke="#53a85f" stroke-width="1.51"/><path d="M1341,161L1297,175L1384,160Z" fill="#1e833e" stroke="#1e833e" stroke-width="1.51"/><path d="M1517,83L1474,125L1518,125Z" fill="#289048" stroke="#289048" stroke-width="1.51"/><path d="M1474,125L1473,167L1518,125Z" fill="#1e8540" stroke="#1e8540" stroke-width="1.51"/><path d="M1484,66L1474,125L1517,83Z" fill="#30994f" stroke="#30994f" stroke-width="1.51"/><path d="M1449,76L1474,125L1484,66Z" fill="#339b51" stroke="#339b51" stroke-width="1.51"/><path d="M1430,43L1484,66L1500,21Z" fill="#54aa61" stroke="#54aa61" stroke-width="1.51"/><path d="M1443,-13L1430,43L1500,21Z" fill="#66b26e" stroke="#66b26e" stroke-width="1.51"/><path d="M1491,-42L1443,-13L1500,21Z" fill="#74b77b" stroke="#74b77b" stroke-width="1.51"/><path d="M1485,-63L1443,-13L1491,-42Z" fill="#82bd87" stroke="#82bd87" stroke-width="1.51"/><path d="M1441,157L1473,167L1474,125Z" fill="#1b823d" stroke="#1b823d" stroke-width="1.51"/><path d="M1430,43L1449,76L1484,66Z" fill="#48a55b" stroke="#48a55b" stroke-width="1.51"/><path d="M1428,-68L1443,-13L1485,-63Z" fill="#86bf8c" stroke="#86bf8c" stroke-width="1.51"/><path d="M1449,76L1434,142L1474,125Z" fill="#2a914a" stroke="#2a914a" stroke-width="1.51"/><path d="M1434,142L1441,157L1474,125Z" fill="#1f8641" stroke="#1f8641" stroke-width="1.51"/><path d="M1193,-94L1238,-73L1327,-70Z" fill="#9bd0a0" stroke="#9bd0a0" stroke-width="1.51"/><path d="M1392,-7L1430,43L1443,-13Z" fill="#6db775" stroke="#6db775" stroke-width="1.51"/><path d="M1428,-68L1392,-7L1443,-13Z" fill="#80be86" stroke="#80be86" stroke-width="1.51"/><path d="M1430,43L1386,73L1449,76Z" fill="#48a75c" stroke="#48a75c" stroke-width="1.51"/><path d="M1386,73L1391,117L1449,76Z" fill="#369f54" stroke="#369f54" stroke-width="1.51"/><path d="M1391,117L1434,142L1449,76Z" fill="#2c944b" stroke="#2c944b" stroke-width="1.51"/><path d="M1434,142L1384,160L1441,157Z" fill="#1d833e" stroke="#1d833e" stroke-width="1.51"/><path d="M1376,-73L1392,-7L1428,-68Z" fill="#8ac38f" stroke="#8ac38f" stroke-width="1.51"/><path d="M1392,-7L1377,21L1430,43Z" fill="#67b570" stroke="#67b570" stroke-width="1.51"/><path d="M1391,117L1384,160L1434,142Z" fill="#238a43" stroke="#238a43" stroke-width="1.51"/><path d="M1377,21L1386,73L1430,43Z" fill="#56ae63" stroke="#56ae63" stroke-width="1.51"/><path d="M1341,110L1341,161L1384,160Z" fill="#248b44" stroke="#248b44" stroke-width="1.51"/><path d="M1377,21L1341,65L1386,73Z" fill="#52ad62" stroke="#52ad62" stroke-width="1.51"/><path d="M1386,73L1341,110L1391,117Z" fill="#349c52" stroke="#349c52" stroke-width="1.51"/><path d="M1341,110L1384,160L1391,117Z" fill="#289048" stroke="#289048" stroke-width="1.51"/><path d="M1376,-73L1323,-36L1392,-7Z" fill="#87c48c" stroke="#87c48c" stroke-width="1.51"/><path d="M1344,15L1377,21L1392,-7Z" fill="#6eb976" stroke="#6eb976" stroke-width="1.51"/><path d="M1323,-36L1344,15L1392,-7Z" fill="#79be7f" stroke="#79be7f" stroke-width="1.51"/><path d="M1341,65L1341,110L1386,73Z" fill="#3da458" stroke="#3da458" stroke-width="1.51"/><path d="M1327,-70L1323,-36L1376,-73Z" fill="#91c896" stroke="#91c896" stroke-width="1.51"/><path d="M1344,15L1341,65L1377,21Z" fill="#60b46b" stroke="#60b46b" stroke-width="1.51"/><path d="M1238,-73L1289,-60L1327,-70Z" fill="#96cd9b" stroke="#96cd9b" stroke-width="1.51"/><path d="M375,172L280,186L640,187Z" fill="#6b9e6d" stroke="#6b9e6d" stroke-width="1.51"/><path d="M742,175L640,187L887,188Z" fill="#529358" stroke="#529358" stroke-width="1.51"/><path d="M1037,169L936,187L1138,185Z" fill="#388948" stroke="#388948" stroke-width="1.51"/><path d="M1296,120L1297,175L1341,161Z" fill="#248a44" stroke="#248a44" stroke-width="1.51"/><path d="M1296,120L1341,161L1341,110Z" fill="#2b924a" stroke="#2b924a" stroke-width="1.51"/><path d="M1296,120L1341,110L1341,65Z" fill="#38a054" stroke="#38a054" stroke-width="1.51"/><path d="M1274,67L1296,120L1341,65Z" fill="#3fa75a" stroke="#3fa75a" stroke-width="1.51"/><path d="M1286,38L1341,65L1344,15Z" fill="#5eb46a" stroke="#5eb46a" stroke-width="1.51"/><path d="M1323,-36L1286,38L1344,15Z" fill="#73bd7a" stroke="#73bd7a" stroke-width="1.51"/><path d="M1286,38L1274,67L1341,65Z" fill="#53b063" stroke="#53b063" stroke-width="1.51"/><path d="M1275,-36L1286,38L1323,-36Z" fill="#7dc383" stroke="#7dc383" stroke-width="1.51"/><path d="M1289,-60L1323,-36L1327,-70Z" fill="#90ca96" stroke="#90ca96" stroke-width="1.51"/><path d="M1289,-60L1275,-36L1323,-36Z" fill="#8cc992" stroke="#8cc992" stroke-width="1.51"/><path d="M1026,-77L1068,-68L1193,-94Z" fill="#a7d8a8" stroke="#a7d8a8" stroke-width="1.51"/><path d="M1275,-36L1243,9L1286,38Z" fill="#77c17e" stroke="#77c17e" stroke-width="1.51"/><path d="M1224,122L1245,182L1296,120Z" fill="#2b924a" stroke="#2b924a" stroke-width="1.51"/><path d="M1274,67L1243,88L1296,120Z" fill="#3da659" stroke="#3da659" stroke-width="1.51"/><path d="M1296,120L1245,182L1297,175Z" fill="#248a43" stroke="#248a43" stroke-width="1.51"/><path d="M1243,88L1224,122L1296,120Z" fill="#379f54" stroke="#379f54" stroke-width="1.51"/><path d="M1238,-73L1275,-36L1289,-60Z" fill="#93cc98" stroke="#93cc98" stroke-width="1.51"/><path d="M1243,9L1274,67L1286,38Z" fill="#62b86d" stroke="#62b86d" stroke-width="1.51"/><path d="M1196,42L1243,88L1243,9Z" fill="#5eb86b" stroke="#5eb86b" stroke-width="1.51"/><path d="M1243,9L1243,88L1274,67Z" fill="#57b466" stroke="#57b466" stroke-width="1.51"/><path d="M1230,-25L1243,9L1275,-36Z" fill="#83c788" stroke="#83c788" stroke-width="1.51"/><path d="M1238,-73L1230,-25L1275,-36Z" fill="#8fcc95" stroke="#8fcc95" stroke-width="1.51"/><path d="M187,-88L236,-82L499,-94Z" fill="#e4f5de" stroke="#e4f5de" stroke-width="1.51"/><path d="M918,-79L969,-73L1026,-77Z" fill="#b1deae" stroke="#b1deae" stroke-width="1.51"/><path d="M1192,119L1177,190L1224,122Z" fill="#2f944b" stroke="#2f944b" stroke-width="1.51"/><path d="M1196,-30L1230,-25L1238,-73Z" fill="#90cd95" stroke="#90cd95" stroke-width="1.51"/><path d="M1196,42L1185,62L1243,88Z" fill="#54b365" stroke="#54b365" stroke-width="1.51"/><path d="M1224,122L1177,190L1245,182Z" fill="#278b44" stroke="#278b44" stroke-width="1.51"/><path d="M1192,119L1224,122L1243,88Z" fill="#39a156" stroke="#39a156" stroke-width="1.51"/><path d="M1185,62L1192,119L1243,88Z" fill="#42ab5d" stroke="#42ab5d" stroke-width="1.51"/><path d="M1230,-25L1196,-30L1243,9Z" fill="#83c889" stroke="#83c889" stroke-width="1.51"/><path d="M1196,-30L1196,42L1243,9Z" fill="#78c47f" stroke="#78c47f" stroke-width="1.51"/><path d="M1193,-94L1196,-30L1238,-73Z" fill="#9ad19f" stroke="#9ad19f" stroke-width="1.51"/><path d="M526,-93L726,-73L827,-91Z" fill="#c9e9c4" stroke="#c9e9c4" stroke-width="1.51"/><path d="M1068,-68L1136,-63L1193,-94Z" fill="#a3d6a5" stroke="#a3d6a5" stroke-width="1.51"/><path d="M1123,134L1138,185L1177,190Z" fill="#2e8b46" stroke="#2e8b46" stroke-width="1.51"/><path d="M1123,134L1177,190L1192,119Z" fill="#32954c" stroke="#32954c" stroke-width="1.51"/><path d="M1185,62L1152,66L1192,119Z" fill="#4aae60" stroke="#4aae60" stroke-width="1.51"/><path d="M1151,19L1185,62L1196,42Z" fill="#66bc70" stroke="#66bc70" stroke-width="1.51"/><path d="M1123,-20L1151,19L1196,-30Z" fill="#86ca89" stroke="#86ca89" stroke-width="1.51"/><path d="M1136,-63L1123,-20L1196,-30Z" fill="#94d097" stroke="#94d097" stroke-width="1.51"/><path d="M1193,-94L1136,-63L1196,-30Z" fill="#9cd39f" stroke="#9cd39f" stroke-width="1.51"/><path d="M1151,19L1196,42L1196,-30Z" fill="#79c57f" stroke="#79c57f" stroke-width="1.51"/><path d="M1151,19L1152,66L1185,62Z" fill="#62bb6d" stroke="#62bb6d" stroke-width="1.51"/><path d="M1152,66L1123,134L1192,119Z" fill="#41a65a" stroke="#41a65a" stroke-width="1.51"/><path d="M1067,159L1037,169L1138,185Z" fill="#358c48" stroke="#358c48" stroke-width="1.51"/><path d="M1151,19L1083,18L1152,66Z" fill="#6fc175" stroke="#6fc175" stroke-width="1.51"/><path d="M1083,18L1095,84L1152,66Z" fill="#62bb6d" stroke="#62bb6d" stroke-width="1.51"/><path d="M1095,84L1123,134L1152,66Z" fill="#49ac5f" stroke="#49ac5f" stroke-width="1.51"/><path d="M1123,-20L1083,18L1151,19Z" fill="#81c984" stroke="#81c984" stroke-width="1.51"/><path d="M1096,-39L1123,-20L1136,-63Z" fill="#98d299" stroke="#98d299" stroke-width="1.51"/><path d="M1123,134L1091,143L1138,185Z" fill="#35944c" stroke="#35944c" stroke-width="1.51"/><path d="M1091,143L1067,159L1138,185Z" fill="#34914a" stroke="#34914a" stroke-width="1.51"/><path d="M1068,-68L1096,-39L1136,-63Z" fill="#a0d5a1" stroke="#a0d5a1" stroke-width="1.51"/><path d="M1095,84L1091,143L1123,134Z" fill="#42a258" stroke="#42a258" stroke-width="1.51"/><path d="M1096,-39L1083,18L1123,-20Z" fill="#8dce8f" stroke="#8dce8f" stroke-width="1.51"/><path d="M967,170L936,187L1037,169Z" fill="#3f8f4c" stroke="#3f8f4c" stroke-width="1.51"/><path d="M1031,116L1091,143L1095,84Z" fill="#47a65b" stroke="#47a65b" stroke-width="1.51"/><path d="M1044,82L1031,116L1095,84Z" fill="#50b063" stroke="#50b063" stroke-width="1.51"/><path d="M1083,18L1044,82L1095,84Z" fill="#63bb6c" stroke="#63bb6c" stroke-width="1.51"/><path d="M1027,-13L1083,18L1096,-39Z" fill="#8ecf8f" stroke="#8ecf8f" stroke-width="1.51"/><path d="M1068,-68L1027,-13L1096,-39Z" fill="#9cd49c" stroke="#9cd49c" stroke-width="1.51"/><path d="M1031,116L1067,159L1091,143Z" fill="#409c53" stroke="#409c53" stroke-width="1.51"/><path d="M1016,35L1044,82L1083,18Z" fill="#6fc274" stroke="#6fc274" stroke-width="1.51"/><path d="M551,169L375,172L640,187Z" fill="#669f6a" stroke="#669f6a" stroke-width="1.51"/><path d="M1027,-13L1016,35L1083,18Z" fill="#83cb84" stroke="#83cb84" stroke-width="1.51"/><path d="M526,-93L631,-70L726,-73Z" fill="#ccebc7" stroke="#ccebc7" stroke-width="1.51"/><path d="M1031,116L1037,169L1067,159Z" fill="#3f9951" stroke="#3f9951" stroke-width="1.51"/><path d="M1026,-77L1027,-13L1068,-68Z" fill="#a3d7a2" stroke="#a3d7a2" stroke-width="1.51"/><path d="M1026,-77L1003,-23L1027,-13Z" fill="#9fd69d" stroke="#9fd69d" stroke-width="1.51"/><path d="M1031,116L966,130L1037,169Z" fill="#469f56" stroke="#469f56" stroke-width="1.51"/><path d="M995,90L1031,116L1044,82Z" fill="#53b163" stroke="#53b163" stroke-width="1.51"/><path d="M1016,35L995,90L1044,82Z" fill="#63ba6c" stroke="#63ba6c" stroke-width="1.51"/><path d="M999,30L1016,35L1027,-13Z" fill="#83cb83" stroke="#83cb83" stroke-width="1.51"/><path d="M966,130L967,170L1037,169Z" fill="#429951" stroke="#429951" stroke-width="1.51"/><path d="M851,176L742,175L887,188Z" fill="#4c9354" stroke="#4c9354" stroke-width="1.51"/><path d="M969,-73L1003,-23L1026,-77Z" fill="#a9daa6" stroke="#a9daa6" stroke-width="1.51"/><path d="M1003,-23L999,30L1027,-13Z" fill="#8ecf8d" stroke="#8ecf8d" stroke-width="1.51"/><path d="M995,90L966,130L1031,116Z" fill="#4fab5f" stroke="#4fab5f" stroke-width="1.51"/><path d="M999,30L995,90L1016,35Z" fill="#6fc173" stroke="#6fc173" stroke-width="1.51"/><path d="M949,56L995,90L999,30Z" fill="#6dc072" stroke="#6dc072" stroke-width="1.51"/><path d="M927,12L999,30L1003,-23Z" fill="#8dcf8a" stroke="#8dcf8a" stroke-width="1.51"/><path d="M950,-44L927,12L1003,-23Z" fill="#9bd597" stroke="#9bd597" stroke-width="1.51"/><path d="M969,-73L950,-44L1003,-23Z" fill="#a6daa3" stroke="#a6daa3" stroke-width="1.51"/><path d="M927,12L949,56L999,30Z" fill="#7fc97e" stroke="#7fc97e" stroke-width="1.51"/><path d="M949,56L966,130L995,90Z" fill="#59b567" stroke="#59b567" stroke-width="1.51"/><path d="M784,168L742,175L851,176Z" fill="#519758" stroke="#519758" stroke-width="1.51"/><path d="M949,56L924,137L966,130Z" fill="#56af64" stroke="#56af64" stroke-width="1.51"/><path d="M966,130L924,137L967,170Z" fill="#499f56" stroke="#499f56" stroke-width="1.51"/><path d="M924,137L936,187L967,170Z" fill="#449750" stroke="#449750" stroke-width="1.51"/><path d="M918,-79L950,-44L969,-73Z" fill="#b0deac" stroke="#b0deac" stroke-width="1.51"/><path d="M886,126L924,137L949,56Z" fill="#59b166" stroke="#59b166" stroke-width="1.51"/><path d="M869,82L886,126L949,56Z" fill="#61ba6d" stroke="#61ba6d" stroke-width="1.51"/><path d="M870,-39L927,12L950,-44Z" fill="#a2d89d" stroke="#a2d89d" stroke-width="1.51"/><path d="M918,-79L870,-39L950,-44Z" fill="#aeddaa" stroke="#aeddaa" stroke-width="1.51"/><path d="M927,12L885,10L949,56Z" fill="#86cc85" stroke="#86cc85" stroke-width="1.51"/><path d="M885,10L869,82L949,56Z" fill="#7ac67a" stroke="#7ac67a" stroke-width="1.51"/><path d="M895,-81L870,-39L918,-79Z" fill="#b5e0b0" stroke="#b5e0b0" stroke-width="1.51"/><path d="M870,-39L885,10L927,12Z" fill="#9ad596" stroke="#9ad596" stroke-width="1.51"/><path d="M924,137L887,188L936,187Z" fill="#469551" stroke="#469551" stroke-width="1.51"/><path d="M726,-73L772,-74L827,-91Z" fill="#c1e6bc" stroke="#c1e6bc" stroke-width="1.51"/><path d="M886,126L887,188L924,137Z" fill="#4d9f58" stroke="#4d9f58" stroke-width="1.51"/><path d="M832,39L869,82L885,10Z" fill="#81ca80" stroke="#81ca80" stroke-width="1.51"/><path d="M870,-39L851,-20L885,10Z" fill="#a1d89d" stroke="#a1d89d" stroke-width="1.51"/><path d="M886,126L851,176L887,188Z" fill="#4b9a56" stroke="#4b9a56" stroke-width="1.51"/><path d="M827,-91L870,-39L895,-81Z" fill="#b8e1b3" stroke="#b8e1b3" stroke-width="1.51"/><path d="M869,82L839,115L886,126Z" fill="#5eb369" stroke="#5eb369" stroke-width="1.51"/><path d="M839,115L851,176L886,126Z" fill="#54a55f" stroke="#54a55f" stroke-width="1.51"/><path d="M851,-20L832,39L885,10Z" fill="#95d391" stroke="#95d391" stroke-width="1.51"/><path d="M236,-82L337,-71L499,-94Z" fill="#e0f3da" stroke="#e0f3da" stroke-width="1.51"/><path d="M834,88L839,115L869,82Z" fill="#64b96f" stroke="#64b96f" stroke-width="1.51"/><path d="M832,39L834,88L869,82Z" fill="#72c277" stroke="#72c277" stroke-width="1.51"/><path d="M827,-91L851,-20L870,-39Z" fill="#b2dfad" stroke="#b2dfad" stroke-width="1.51"/><path d="M676,174L640,187L742,175Z" fill="#59985e" stroke="#59985e" stroke-width="1.51"/><path d="M775,140L784,168L839,115Z" fill="#59a762" stroke="#59a762" stroke-width="1.51"/><path d="M839,115L784,168L851,176Z" fill="#53a15c" stroke="#53a15c" stroke-width="1.51"/><path d="M827,-91L772,-74L851,-20Z" fill="#b9e2b4" stroke="#b9e2b4" stroke-width="1.51"/><path d="M772,-74L767,-10L851,-20Z" fill="#b0dfaa" stroke="#b0dfaa" stroke-width="1.51"/><path d="M767,-10L832,39L851,-20Z" fill="#9cd697" stroke="#9cd697" stroke-width="1.51"/><path d="M767,-10L767,22L832,39Z" fill="#97d492" stroke="#97d492" stroke-width="1.51"/><path d="M832,39L769,85L834,88Z" fill="#74c379" stroke="#74c379" stroke-width="1.51"/><path d="M834,88L769,85L839,115Z" fill="#67ba70" stroke="#67ba70" stroke-width="1.51"/><path d="M769,85L775,140L839,115Z" fill="#63b36c" stroke="#63b36c" stroke-width="1.51"/><path d="M767,22L769,85L832,39Z" fill="#84cc82" stroke="#84cc82" stroke-width="1.51"/><path d="M752,-43L767,-10L772,-74Z" fill="#b6e2b0" stroke="#b6e2b0" stroke-width="1.51"/><path d="M476,159L375,172L551,169Z" fill="#6ca66f" stroke="#6ca66f" stroke-width="1.51"/><path d="M767,22L727,79L769,85Z" fill="#7fc880" stroke="#7fc880" stroke-width="1.51"/><path d="M769,85L742,136L775,140Z" fill="#63b16c" stroke="#63b16c" stroke-width="1.51"/><path d="M775,140L742,175L784,168Z" fill="#569f5d" stroke="#569f5d" stroke-width="1.51"/><path d="M736,13L727,79L767,22Z" fill="#8ed08b" stroke="#8ed08b" stroke-width="1.51"/><path d="M727,79L742,136L769,85Z" fill="#6bba74" stroke="#6bba74" stroke-width="1.51"/><path d="M742,136L742,175L775,140Z" fill="#5ba562" stroke="#5ba562" stroke-width="1.51"/><path d="M736,13L767,22L767,-10Z" fill="#9ed899" stroke="#9ed899" stroke-width="1.51"/><path d="M726,-73L752,-43L772,-74Z" fill="#bfe5ba" stroke="#bfe5ba" stroke-width="1.51"/><path d="M752,-43L736,13L767,-10Z" fill="#aadda3" stroke="#aadda3" stroke-width="1.51"/><path d="M631,-70L666,-58L726,-73Z" fill="#c6e8c0" stroke="#c6e8c0" stroke-width="1.51"/><path d="M697,63L727,79L736,13Z" fill="#88cd86" stroke="#88cd86" stroke-width="1.51"/><path d="M727,79L697,137L742,136Z" fill="#68b470" stroke="#68b470" stroke-width="1.51"/><path d="M672,-19L736,13L752,-43Z" fill="#aedea7" stroke="#aedea7" stroke-width="1.51"/><path d="M726,-73L672,-19L752,-43Z" fill="#bbe3b4" stroke="#bbe3b4" stroke-width="1.51"/><path d="M697,137L676,174L742,175Z" fill="#5ba161" stroke="#5ba161" stroke-width="1.51"/><path d="M697,137L742,175L742,136Z" fill="#5da664" stroke="#5da664" stroke-width="1.51"/><path d="M666,-58L672,-19L726,-73Z" fill="#bfe6b8" stroke="#bfe6b8" stroke-width="1.51"/><path d="M667,9L697,63L736,13Z" fill="#98d593" stroke="#98d593" stroke-width="1.51"/><path d="M672,-19L667,9L736,13Z" fill="#a8dca1" stroke="#a8dca1" stroke-width="1.51"/><path d="M697,63L697,137L727,79Z" fill="#71bf79" stroke="#71bf79" stroke-width="1.51"/><path d="M628,106L676,174L697,137Z" fill="#65ad6c" stroke="#65ad6c" stroke-width="1.51"/><path d="M647,82L628,106L697,137Z" fill="#70ba78" stroke="#70ba78" stroke-width="1.51"/><path d="M647,82L697,137L697,63Z" fill="#73bf7a" stroke="#73bf7a" stroke-width="1.51"/><path d="M667,9L647,82L697,63Z" fill="#8ccf8a" stroke="#8ccf8a" stroke-width="1.51"/><path d="M526,-93L593,-61L631,-70Z" fill="#cfecc9" stroke="#cfecc9" stroke-width="1.51"/><path d="M619,35L647,82L667,9Z" fill="#94d390" stroke="#94d390" stroke-width="1.51"/><path d="M666,-58L622,-12L672,-19Z" fill="#b9e4b2" stroke="#b9e4b2" stroke-width="1.51"/><path d="M628,106L640,187L676,174Z" fill="#61a667" stroke="#61a667" stroke-width="1.51"/><path d="M572,165L551,169L640,187Z" fill="#619e66" stroke="#619e66" stroke-width="1.51"/><path d="M631,-70L622,-12L666,-58Z" fill="#c1e7ba" stroke="#c1e7ba" stroke-width="1.51"/><path d="M622,-12L667,9L672,-19Z" fill="#aedfa7" stroke="#aedfa7" stroke-width="1.51"/><path d="M628,106L603,116L640,187Z" fill="#69af6f" stroke="#69af6f" stroke-width="1.51"/><path d="M622,-12L619,35L667,9Z" fill="#a7dca0" stroke="#a7dca0" stroke-width="1.51"/><path d="M593,-61L622,-12L631,-70Z" fill="#c3e7bd" stroke="#c3e7bd" stroke-width="1.51"/><path d="M603,116L572,165L640,187Z" fill="#65a76a" stroke="#65a76a" stroke-width="1.51"/><path d="M578,88L628,106L647,82Z" fill="#79c37f" stroke="#79c37f" stroke-width="1.51"/><path d="M619,35L578,88L647,82Z" fill="#86cb88" stroke="#86cb88" stroke-width="1.51"/><path d="M146,177L-22,185L203,186Z" fill="#7ba47e" stroke="#7ba47e" stroke-width="1.51"/><path d="M593,-61L586,-39L622,-12Z" fill="#c0e6b9" stroke="#c0e6b9" stroke-width="1.51"/><path d="M587,13L619,35L622,-12Z" fill="#a8dca1" stroke="#a8dca1" stroke-width="1.51"/><path d="M578,88L603,116L628,106Z" fill="#76be7d" stroke="#76be7d" stroke-width="1.51"/><path d="M587,13L578,88L619,35Z" fill="#96d392" stroke="#96d392" stroke-width="1.51"/><path d="M586,-39L587,13L622,-12Z" fill="#b6e2ae" stroke="#b6e2ae" stroke-width="1.51"/><path d="M539,43L578,88L587,13Z" fill="#96d392" stroke="#96d392" stroke-width="1.51"/><path d="M578,88L529,114L603,116Z" fill="#78be7e" stroke="#78be7e" stroke-width="1.51"/><path d="M529,114L572,165L603,116Z" fill="#6fb375" stroke="#6fb375" stroke-width="1.51"/><path d="M586,-39L539,-9L587,13Z" fill="#b7e2b0" stroke="#b7e2b0" stroke-width="1.51"/><path d="M526,-93L586,-39L593,-61Z" fill="#cdebc7" stroke="#cdebc7" stroke-width="1.51"/><path d="M529,114L551,169L572,165Z" fill="#6bac70" stroke="#6bac70" stroke-width="1.51"/><path d="M526,-93L539,-9L586,-39Z" fill="#c8e9c1" stroke="#c8e9c1" stroke-width="1.51"/><path d="M539,-9L539,43L587,13Z" fill="#aadda3" stroke="#aadda3" stroke-width="1.51"/><path d="M424,156L375,172L476,159Z" fill="#70aa73" stroke="#70aa73" stroke-width="1.51"/><path d="M539,43L518,73L578,88Z" fill="#8ccd8d" stroke="#8ccd8d" stroke-width="1.51"/><path d="M518,73L529,114L578,88Z" fill="#7fc585" stroke="#7fc585" stroke-width="1.51"/><path d="M337,-71L398,-60L499,-94Z" fill="#dbf1d5" stroke="#dbf1d5" stroke-width="1.51"/><path d="M526,-93L482,-32L539,-9Z" fill="#c9eac3" stroke="#c9eac3" stroke-width="1.51"/><path d="M490,18L539,43L539,-9Z" fill="#abdda5" stroke="#abdda5" stroke-width="1.51"/><path d="M529,114L476,159L551,169Z" fill="#6eae73" stroke="#6eae73" stroke-width="1.51"/><path d="M499,-94L482,-32L526,-93Z" fill="#d4eece" stroke="#d4eece" stroke-width="1.51"/><path d="M490,18L518,73L539,43Z" fill="#9cd698" stroke="#9cd698" stroke-width="1.51"/><path d="M482,-32L490,18L539,-9Z" fill="#bae4b2" stroke="#bae4b2" stroke-width="1.51"/><path d="M398,-60L448,-63L499,-94Z" fill="#d8f0d1" stroke="#d8f0d1" stroke-width="1.51"/><path d="M490,18L481,73L518,73Z" fill="#97d395" stroke="#97d395" stroke-width="1.51"/><path d="M518,73L481,73L529,114Z" fill="#83c989" stroke="#83c989" stroke-width="1.51"/><path d="M481,73L467,120L529,114Z" fill="#7fc284" stroke="#7fc284" stroke-width="1.51"/><path d="M467,120L476,159L529,114Z" fill="#75b57b" stroke="#75b57b" stroke-width="1.51"/><path d="M446,57L481,73L490,18Z" fill="#9cd699" stroke="#9cd699" stroke-width="1.51"/><path d="M448,-63L482,-32L499,-94Z" fill="#d3eecd" stroke="#d3eecd" stroke-width="1.51"/><path d="M437,12L446,57L490,18Z" fill="#a9dca4" stroke="#a9dca4" stroke-width="1.51"/><path d="M482,-32L437,12L490,18Z" fill="#b8e3b1" stroke="#b8e3b1" stroke-width="1.51"/><path d="M467,120L439,135L476,159Z" fill="#75b37a" stroke="#75b37a" stroke-width="1.51"/><path d="M446,57L467,120L481,73Z" fill="#89cb8d" stroke="#89cb8d" stroke-width="1.51"/><path d="M448,-63L431,-38L482,-32Z" fill="#ceecc6" stroke="#ceecc6" stroke-width="1.51"/><path d="M431,-38L437,12L482,-32Z" fill="#c3e8bc" stroke="#c3e8bc" stroke-width="1.51"/><path d="M439,135L424,156L476,159Z" fill="#72af76" stroke="#72af76" stroke-width="1.51"/><path d="M398,124L439,135L446,57Z" fill="#82c388" stroke="#82c388" stroke-width="1.51"/><path d="M446,57L439,135L467,120Z" fill="#81c387" stroke="#81c387" stroke-width="1.51"/><path d="M371,73L398,124L446,57Z" fill="#8bcc91" stroke="#8bcc91" stroke-width="1.51"/><path d="M437,12L369,35L446,57Z" fill="#a9dca3" stroke="#a9dca3" stroke-width="1.51"/><path d="M398,-60L431,-38L448,-63Z" fill="#d3eecc" stroke="#d3eecc" stroke-width="1.51"/><path d="M369,35L371,73L446,57Z" fill="#9ed69c" stroke="#9ed69c" stroke-width="1.51"/><path d="M431,-38L366,-19L437,12Z" fill="#c4e8bc" stroke="#c4e8bc" stroke-width="1.51"/><path d="M398,124L424,156L439,135Z" fill="#78b47d" stroke="#78b47d" stroke-width="1.51"/><path d="M366,-19L369,35L437,12Z" fill="#b8e3b1" stroke="#b8e3b1" stroke-width="1.51"/><path d="M29,174L-22,185L146,177Z" fill="#7ea782" stroke="#7ea782" stroke-width="1.51"/><path d="M398,-60L366,-19L431,-38Z" fill="#cfedc8" stroke="#cfedc8" stroke-width="1.51"/><path d="M329,165L280,186L375,172Z" fill="#73a576" stroke="#73a576" stroke-width="1.51"/><path d="M398,124L375,172L424,156Z" fill="#75b079" stroke="#75b079" stroke-width="1.51"/><path d="M371,73L352,77L398,124Z" fill="#8bca8f" stroke="#8bca8f" stroke-width="1.51"/><path d="M352,77L327,129L398,124Z" fill="#85c28a" stroke="#85c28a" stroke-width="1.51"/><path d="M327,129L375,172L398,124Z" fill="#7ab47e" stroke="#7ab47e" stroke-width="1.51"/><path d="M337,-71L366,-19L398,-60Z" fill="#d5efce" stroke="#d5efce" stroke-width="1.51"/><path d="M337,-71L328,-40L366,-19Z" fill="#d4eecd" stroke="#d4eecd" stroke-width="1.51"/><path d="M366,-19L332,27L369,35Z" fill="#b8e3b1" stroke="#b8e3b1" stroke-width="1.51"/><path d="M369,35L352,77L371,73Z" fill="#9cd49b" stroke="#9cd49b" stroke-width="1.51"/><path d="M327,129L329,165L375,172Z" fill="#77af7b" stroke="#77af7b" stroke-width="1.51"/><path d="M1,-93L153,-79L187,-88Z" fill="#edf9e9" stroke="#edf9e9" stroke-width="1.51"/><path d="M236,-82L283,-58L337,-71Z" fill="#e1f3db" stroke="#e1f3db" stroke-width="1.51"/><path d="M332,27L352,77L369,35Z" fill="#a6daa2" stroke="#a6daa2" stroke-width="1.51"/><path d="M328,-40L332,27L366,-19Z" fill="#c6e8be" stroke="#c6e8be" stroke-width="1.51"/><path d="M328,-40L296,-9L332,27Z" fill="#c5e8be" stroke="#c5e8be" stroke-width="1.51"/><path d="M332,27L298,90L352,77Z" fill="#9cd49c" stroke="#9cd49c" stroke-width="1.51"/><path d="M298,90L327,129L352,77Z" fill="#8bc890" stroke="#8bc890" stroke-width="1.51"/><path d="M287,38L298,90L332,27Z" fill="#a5d9a2" stroke="#a5d9a2" stroke-width="1.51"/><path d="M283,-58L328,-40L337,-71Z" fill="#dbf1d4" stroke="#dbf1d4" stroke-width="1.51"/><path d="M298,90L286,117L327,129Z" fill="#87c28d" stroke="#87c28d" stroke-width="1.51"/><path d="M327,129L286,117L329,165Z" fill="#7fb783" stroke="#7fb783" stroke-width="1.51"/><path d="M296,-9L287,38L332,27Z" fill="#b8e3b2" stroke="#b8e3b2" stroke-width="1.51"/><path d="M286,117L280,186L329,165Z" fill="#7aaf7d" stroke="#7aaf7d" stroke-width="1.51"/><path d="M242,177L203,186L280,186Z" fill="#75a178" stroke="#75a178" stroke-width="1.51"/><path d="M283,-58L296,-9L328,-40Z" fill="#d3eecc" stroke="#d3eecc" stroke-width="1.51"/><path d="M249,140L280,186L286,117Z" fill="#7eb482" stroke="#7eb482" stroke-width="1.51"/><path d="M283,-58L218,-30L296,-9Z" fill="#d4eecd" stroke="#d4eecd" stroke-width="1.51"/><path d="M228,17L287,38L296,-9Z" fill="#bce4b6" stroke="#bce4b6" stroke-width="1.51"/><path d="M287,38L235,57L298,90Z" fill="#a1d6a0" stroke="#a1d6a0" stroke-width="1.51"/><path d="M235,57L286,117L298,90Z" fill="#92ce97" stroke="#92ce97" stroke-width="1.51"/><path d="M218,-30L228,17L296,-9Z" fill="#c9eac2" stroke="#c9eac2" stroke-width="1.51"/><path d="M249,140L242,177L280,186Z" fill="#78aa7c" stroke="#78aa7c" stroke-width="1.51"/><path d="M235,57L249,140L286,117Z" fill="#8dc792" stroke="#8dc792" stroke-width="1.51"/><path d="M228,17L235,57L287,38Z" fill="#b1deac" stroke="#b1deac" stroke-width="1.51"/><path d="M236,-82L218,-30L283,-58Z" fill="#dff3d9" stroke="#dff3d9" stroke-width="1.51"/><path d="M203,-37L218,-30L236,-82Z" fill="#def2d7" stroke="#def2d7" stroke-width="1.51"/><path d="M235,57L188,122L249,140Z" fill="#8ec794" stroke="#8ec794" stroke-width="1.51"/><path d="M203,186L242,177L249,140Z" fill="#7aab7d" stroke="#7aab7d" stroke-width="1.51"/><path d="M188,122L203,186L249,140Z" fill="#80b485" stroke="#80b485" stroke-width="1.51"/><path d="M175,65L188,122L235,57Z" fill="#9ad29e" stroke="#9ad29e" stroke-width="1.51"/><path d="M228,17L175,65L235,57Z" fill="#aeddaa" stroke="#aeddaa" stroke-width="1.51"/><path d="M187,-88L203,-37L236,-82Z" fill="#e5f5e0" stroke="#e5f5e0" stroke-width="1.51"/><path d="M177,12L175,65L228,17Z" fill="#b8e1b2" stroke="#b8e1b2" stroke-width="1.51"/><path d="M218,-30L177,12L228,17Z" fill="#c8e9c2" stroke="#c8e9c2" stroke-width="1.51"/><path d="M67,164L29,174L146,177Z" fill="#7fab83" stroke="#7fab83" stroke-width="1.51"/><path d="M203,-37L177,12L218,-30Z" fill="#d1edcb" stroke="#d1edcb" stroke-width="1.51"/><path d="M149,123L146,177L188,122Z" fill="#86b98a" stroke="#86b98a" stroke-width="1.51"/><path d="M188,122L146,177L203,186Z" fill="#7fb082" stroke="#7fb082" stroke-width="1.51"/><path d="M122,-42L177,12L203,-37Z" fill="#d5efce" stroke="#d5efce" stroke-width="1.51"/><path d="M153,-79L122,-42L203,-37Z" fill="#e2f4dc" stroke="#e2f4dc" stroke-width="1.51"/><path d="M187,-88L153,-79L203,-37Z" fill="#e6f6e1" stroke="#e6f6e1" stroke-width="1.51"/><path d="M1,-93L82,-57L153,-79Z" fill="#ecf8e7" stroke="#ecf8e7" stroke-width="1.51"/><path d="M122,-42L151,22L177,12Z" fill="#ccebc6" stroke="#ccebc6" stroke-width="1.51"/><path d="M151,22L175,65L177,12Z" fill="#b8e2b3" stroke="#b8e2b3" stroke-width="1.51"/><path d="M175,65L149,123L188,122Z" fill="#92c998" stroke="#92c998" stroke-width="1.51"/><path d="M151,22L139,57L175,65Z" fill="#afddac" stroke="#afddac" stroke-width="1.51"/><path d="M139,57L149,123L175,65Z" fill="#9cd2a0" stroke="#9cd2a0" stroke-width="1.51"/><path d="M139,57L86,84L149,123Z" fill="#9ad19f" stroke="#9ad19f" stroke-width="1.51"/><path d="M86,84L87,121L149,123Z" fill="#92c898" stroke="#92c898" stroke-width="1.51"/><path d="M87,121L146,177L149,123Z" fill="#87ba8c" stroke="#87ba8c" stroke-width="1.51"/><path d="M122,-42L101,12L151,22Z" fill="#cdebc7" stroke="#cdebc7" stroke-width="1.51"/><path d="M82,-57L122,-42L153,-79Z" fill="#e6f5e0" stroke="#e6f5e0" stroke-width="1.51"/><path d="M101,12L139,57L151,22Z" fill="#bbe3b5" stroke="#bbe3b5" stroke-width="1.51"/><path d="M87,121L67,164L146,177Z" fill="#84b588" stroke="#84b588" stroke-width="1.51"/><path d="M101,12L86,84L139,57Z" fill="#b0ddac" stroke="#b0ddac" stroke-width="1.51"/><path d="M68,-34L101,12L122,-42Z" fill="#d7efd1" stroke="#d7efd1" stroke-width="1.51"/><path d="M82,-57L68,-34L122,-42Z" fill="#e1f3db" stroke="#e1f3db" stroke-width="1.51"/><path d="M1,-93L23,-58L82,-57Z" fill="#ebf8e7" stroke="#ebf8e7" stroke-width="1.51"/><path d="M32,43L40,72L86,84Z" fill="#a9d9a9" stroke="#a9d9a9" stroke-width="1.51"/><path d="M68,-34L49,-18L101,12Z" fill="#d4eece" stroke="#d4eece" stroke-width="1.51"/><path d="M32,43L86,84L101,12Z" fill="#b4dfb0" stroke="#b4dfb0" stroke-width="1.51"/><path d="M49,-18L32,43L101,12Z" fill="#c7e9c2" stroke="#c7e9c2" stroke-width="1.51"/><path d="M86,84L50,112L87,121Z" fill="#95ca9a" stroke="#95ca9a" stroke-width="1.51"/><path d="M50,112L67,164L87,121Z" fill="#8cbe91" stroke="#8cbe91" stroke-width="1.51"/><path d="M40,72L50,112L86,84Z" fill="#9cd1a1" stroke="#9cd1a1" stroke-width="1.51"/><path d="M23,-58L68,-34L82,-57Z" fill="#e4f5df" stroke="#e4f5df" stroke-width="1.51"/><path d="M50,112L29,174L67,164Z" fill="#87b78b" stroke="#87b78b" stroke-width="1.51"/><path d="M23,-58L49,-18L68,-34Z" fill="#dff3da" stroke="#dff3da" stroke-width="1.51"/><path d="M-8,21L32,43L49,-18Z" fill="#c7e8c2" stroke="#c7e8c2" stroke-width="1.51"/><path d="M-3,136L29,174L50,112Z" fill="#8bbb8f" stroke="#8bbb8f" stroke-width="1.51"/><path d="M40,72L-11,88L50,112Z" fill="#9cd1a2" stroke="#9cd1a2" stroke-width="1.51"/><path d="M-11,88L-3,136L50,112Z" fill="#95c89a" stroke="#95c89a" stroke-width="1.51"/><path d="M23,-58L-18,-32L49,-18Z" fill="#e0f3da" stroke="#e0f3da" stroke-width="1.51"/><path d="M-18,-32L-8,21L49,-18Z" fill="#d4eecf" stroke="#d4eecf" stroke-width="1.51"/><path d="M32,43L-11,88L40,72Z" fill="#a9d9aa" stroke="#a9d9aa" stroke-width="1.51"/><path d="M-8,21L-11,88L32,43Z" fill="#b4dfb1" stroke="#b4dfb1" stroke-width="1.51"/><path d="M-3,136L-22,185L29,174Z" fill="#84b188" stroke="#84b188" stroke-width="1.51"/><path d="M1,-93L-18,-32L23,-58Z" fill="#ebf8e6" stroke="#ebf8e6" stroke-width="1.51"/><path d="M-18,-32L-54,8L-8,21Z" fill="#d1edcc" stroke="#d1edcc" stroke-width="1.51"/><path d="M-55,86L-11,88L-8,21Z" fill="#addbad" stroke="#addbad" stroke-width="1.51"/><path d="M-54,8L-55,86L-8,21Z" fill="#bce3b8" stroke="#bce3b8" stroke-width="1.51"/><path d="M-11,88L-55,86L-3,136Z" fill="#99cc9f" stroke="#99cc9f" stroke-width="1.51"/><path d="M-60,172L-22,185L-3,136Z" fill="#85b189" stroke="#85b189" stroke-width="1.51"/><path d="M-59,-64L-18,-32L1,-93Z" fill="#ecf8e8" stroke="#ecf8e8" stroke-width="1.51"/><path d="M-55,86L-76,113L-3,136Z" fill="#97c99c" stroke="#97c99c" stroke-width="1.51"/><path d="M-76,113L-60,172L-3,136Z" fill="#8dbd92" stroke="#8dbd92" stroke-width="1.51"/><path d="M-77,-27L-54,8L-18,-32Z" fill="#daf1d5" stroke="#daf1d5" stroke-width="1.51"/><path d="M-59,-64L-77,-27L-18,-32Z" fill="#e4f5e0" stroke="#e4f5e0" stroke-width="1.51"/><path d="M-76,113L-55,86L-54,8Z" fill="#abdaad" stroke="#abdaad" stroke-width="1.51"/><path d="M-77,-27L-76,113L-54,8Z" fill="#c1e5bd" stroke="#c1e5bd" stroke-width="1.51"/></svg>