<?xml version="1.0" encoding="utf-8"?>
<!-- Generator: Adobe Illustrator 18.1.1, SVG Export Plug-In . SVG Version: 6.00 Build 0)  -->
<svg version="1.1" xmlns="http://www.w3.org/2000/svg" xmlns:xlink="http://www.w3.org/1999/xlink" x="0px" y="0px"
	 viewBox="0 0 27.9 27.9" enable-background="new 0 0 27.9 27.9" xml:space="preserve">
<g id="Layer_1">
</g>
<g id="Laag_1">
	<g>
		<rect x="0" y="0" width="27.9" height="27.9"/>
		<path fill="#FFFFFF" d="M7.4,8.4c0,0,0.7,0,1.1,0c0.6,0,1.1-0.1,1.1,0c0,0.1,0,6.2,0,6.2s0.1,1.3,0.4,2c0.6,1.2,3.1,1.3,3.1,1.3
			s0.4,0,1.3,0c0.9-0.1,2.6-0.3,3.1-1.3c0,0,0.4-0.4,0.5-2.9c0.1-2.6-0.2-5.1-0.2-5.1l2.4-0.1c0,0-0.2,1.8-0.2,5.3
			c0,3.4,0.3,5.4,0.3,5.4L18,19.8l0-2.5l-1.1,1.1c0,0-0.7,0.7-2.2,1.1c-1.5,0.4-2.7,0.3-3.3,0.2c-0.7-0.1-1.3-0.3-1.7-0.5
			c-0.4-0.2-1.1-0.5-1.7-1.5c-0.4-0.6-0.4-2-0.4-2l0-2.7L7.4,8.4z"/>
		<g>
			<polygon fill="#FFFFFF" points="16,7.6 10.7,2.2 11.9,1 17.2,6.4 16,7.6 			"/>
			<g>
				<polygon fill="#FFFFFF" points="11.7,7.6 10.5,6.4 15.9,1.1 17.1,2.2 11.7,7.6 				"/>
			</g>
		</g>
		<g>
			<polygon fill="#FFFFFF" points="16.1,15.7 10.7,10.3 11.9,9.2 17.2,14.5 16.1,15.7 			"/>
			<g>
				<polygon fill="#FFFFFF" points="11.7,15.7 10.6,14.6 15.9,9.2 17.1,10.4 11.7,15.7 				"/>
			</g>
		</g>
		<g>
			<polygon fill="#FFFFFF" points="16,26.6 10.7,21.2 11.8,20 17.2,25.4 16,26.6 			"/>
			<g>
				<polygon fill="#FFFFFF" points="11.7,26.6 10.5,25.4 15.9,20 17.1,21.2 11.7,26.6 				"/>
			</g>
		</g>
	</g>
</g>
</svg>
